<?xml version="1.0" encoding="UTF-8"?>
<svg width="600px" height="600px" viewBox="0 0 600 600" version="1.1" xmlns="http://www.w3.org/2000/svg" xmlns:xlink="http://www.w3.org/1999/xlink">
    <title>hekatoslogo</title>
    <defs>
        <linearGradient x1="16.6655209%" y1="24.2360553%" x2="68.3879288%" y2="66.8463378%" id="linearGradient-1">
            <stop stop-color="#4C566B" offset="0%"></stop>
            <stop stop-color="#5D80AE" offset="100%"></stop>
        </linearGradient>
        <linearGradient x1="92.8892938%" y1="6.370019%" x2="2.3300226%" y2="106.658025%" id="linearGradient-2">
            <stop stop-color="#ECEFF4" offset="0%"></stop>
            <stop stop-color="#5D80AE" offset="100%"></stop>
        </linearGradient>
    </defs>
    <g id="hekatoslogo" stroke="none" stroke-width="1" fill="none" fill-rule="evenodd">
        <g id="Kh13e501" transform="translate(8.000000, 7.000000)">
            <g id="Group" transform="translate(292.500000, 292.500000) scale(-1, 1) rotate(-180.000000) translate(-292.500000, -292.500000) ">
                <circle id="Oval" fill="#3B4253" cx="292.5" cy="292.5" r="292.5"></circle>
                <path d="M282.577162,69.9637575 C281.200479,84.7888582 270.106033,96.94058 254.962519,100.019016 C251.376202,100.742333 247.17013,101.744643 242.960368,102.848809 L241.697945,103.182937 C234.550569,105.091637 227.570575,107.243504 223.784697,108.768256 C222.650958,109.254325 219.735629,110.388485 217.306189,111.360623 C196.979868,119.461771 174.709995,133.719791 158.108817,149.355007 C150.496569,156.403006 148.472035,159.643465 148.472035,164.666176 C148.472035,170.580014 155.841339,177.871047 161.833959,177.790036 C165.235176,177.709024 168.717374,175.683737 174.143125,170.417991 C195.117297,150.165122 221.760163,135.502044 250.913452,128.129999 C260.469252,125.699655 265.652059,124.970552 278.447113,123.998414 C303.227408,122.297173 326.873964,125.294598 347.686173,132.828665 C351.505083,134.227179 356.257186,136.228903 360.878566,138.331918 L362.030572,138.859492 C367.96217,141.59319 373.52775,144.426098 376.434555,146.276571 C376.80167,146.492601 377.197579,146.725914 377.597711,146.961148 L378.198005,147.313518 C379.093982,147.838472 379.949146,148.334262 380.483622,148.625904 C386.31428,151.542317 406.154713,167.258544 411.256538,172.929347 C413.443035,175.359692 418.382897,177.790036 421.055282,177.790036 C427.209865,177.790036 434.336225,170.823049 434.336225,164.747188 C434.336225,159.886499 432.392672,156.64604 425.266313,149.841076 C409.636911,134.772941 385.909373,119.461771 365.502071,111.360623 C363.072631,110.388485 359.833376,109.092302 358.375712,108.44421 C356.918048,107.796118 355.217439,107.310049 354.569588,107.310049 C353.921737,107.310049 352.221129,106.82398 350.763465,106.175889 C349.3058,105.527797 345.74262,104.393636 342.827292,103.664533 C339.911963,102.935429 335.700932,101.801269 333.433454,101.153177 C331.165976,100.505085 328.574573,100.019016 327.602796,100.019016 C326.63102,100.019016 323.148822,98.7228325 319.909568,97.2646259 C313.593022,94.2672012 306.385681,87.5432484 303.551334,82.0344679 C298.935396,73.0421937 298.854415,58.379116 303.308389,50.5210026 C306.3047,45.0932335 312.540264,38.2072578 315.698537,36.7490512 C316.589332,36.3439938 317.885034,35.695902 318.532885,35.2908446 C325.740225,30.9162247 336.834671,30.3491443 350.115614,33.670615 C363.720482,36.9920856 375.786704,40.6376022 384.937597,44.1210958 C385.443731,44.3236245 385.974468,44.5296693 386.507841,44.7326375 L387.147748,44.9743006 C388.956438,45.6524377 390.694022,46.2645245 391.497087,46.5514401 C392.630826,46.875486 394.250453,47.5235779 395.141248,48.0096467 C395.920503,48.399419 401.19885,51.0395741 406.935595,53.8368315 L407.612377,54.1665191 L407.612377,54.1665191 C408.565748,54.630494 409.547815,55.1129224 410.536076,55.6027135 L411.808341,56.235629 C416.614191,58.6353734 421.338717,61.0966829 423.403742,62.3486785 C426.076126,63.8878966 428.829492,65.4271147 429.477343,65.7511606 C430.202176,66.0762067 432.30015,67.4044813 435.004599,69.2024536 L435.664919,69.642712 C437.231003,70.6897493 438.968043,71.8706985 440.741401,73.0918632 L441.503243,73.6174084 C441.630456,73.7053186 441.757757,73.7933657 441.885096,73.8815155 L443.030847,74.676716 C447.353117,77.6843206 451.549262,80.6922777 453.690769,82.3585138 C490.456305,111.279612 518.070948,147.32972 535.562921,189.374677 C535.771673,189.857146 535.980425,190.341534 536.187982,190.824714 L536.498273,191.548185 C538.507403,196.23977 540.34622,200.667678 540.90769,201.931457 C541.555541,203.389663 542.041429,205.090904 542.041429,205.738996 C542.041429,206.387088 542.527317,208.088329 543.175168,209.546536 C544.713814,213.111041 548.438956,226.477935 550.382509,235.308186 C558.480645,271.601328 558.480645,309.595712 550.382509,347.509084 C549.782698,350.352724 548.998126,353.65844 548.1532,356.968996 L547.88452,358.014063 L547.88452,358.014063 L547.612699,359.056251 C545.974085,365.29435 544.212828,371.204255 543.175168,373.675792 C542.527317,375.133999 542.041429,376.754228 542.041429,377.321308 C542.041429,377.807377 541.069653,380.318733 539.854933,382.749078 C536.939604,388.581904 529.651282,395.710914 523.658661,398.627327 C519.528612,400.652614 517.828004,400.97666 510.215756,401.219695 C502.765471,401.462729 500.740937,401.300706 496.853832,399.761488 C487.702939,396.359006 479.847747,388.662915 476.365549,379.751653 C473.855127,373.270734 473.369239,363.1443 475.23181,357.473496 C480.090691,342.972441 482.034244,335.195339 484.706629,319.560124 C485.344357,315.652586 485.746674,306.093073 485.75909,292.272501 L485.758881,290.189733 C485.74367,269.718502 485.368876,265.61008 482.439151,251.510482 C480.171673,240.735955 478.714008,236.766393 475.960642,234.093014 C470.858817,228.989291 462.760681,229.070302 457.577874,234.174025 C453.285862,238.467634 452.880955,243.409334 455.796284,254.345883 C458.908785,265.842469 459.661754,273.405038 459.682925,291.145877 L459.682526,293.474061 C459.662169,310.498345 459.255345,313.643971 455.715303,330.091616 C454.986471,333.413087 454.014694,337.058603 453.609788,338.192764 C453.1239,339.326925 452.476049,341.352212 452.152123,342.648395 C450.694459,347.995153 446.969316,357.473496 443.082211,365.33161 C433.931318,383.883238 425.185331,396.03496 410.527706,410.698038 C408.839694,412.361473 406.971405,414.150367 405.091096,415.906153 L404.285004,416.656144 C400.39008,420.266834 396.546724,423.638271 394.250453,425.361115 C391.811197,427.217015 386.704686,430.618455 381.540317,433.920041 L380.802438,434.390839 C374.040106,438.697005 367.391636,442.697572 366.716792,442.697572 C366.473848,442.697572 364.044407,443.750721 361.21006,445.046905 C353.030943,448.854444 345.337714,451.689846 337.96841,453.634122 C330.761069,455.578397 326.873964,458.251776 324.930412,462.383361 C322.986859,466.757981 322.986859,468.702257 325.092374,472.914854 C327.116908,476.722393 328.250647,477.856554 332.218734,479.557795 C335.781914,481.178024 338.049392,481.097013 344.851825,479.071726 C345.303007,478.944422 345.764105,478.813812 346.226856,478.682257 L346.921188,478.484511 C349.464044,477.759009 351.93191,477.040652 352.949961,476.722393 C354.326644,476.398347 357.403936,475.264186 359.833376,474.292049 C360.33951,474.08952 360.870247,473.883475 361.40362,473.680507 L362.043528,473.438844 C363.852217,472.760707 365.589801,472.14862 366.392866,471.861704 C367.526605,471.537658 369.146233,470.889567 370.037027,470.403498 C370.748682,469.976346 373.586673,468.548193 376.627443,467.053686 L377.258831,466.743838 C377.469837,466.640444 377.681177,466.537041 377.892219,466.433935 C387.367038,461.735269 388.014889,461.411224 395.465173,456.631546 C408.98906,447.882307 417.897009,440.591273 430.287157,428.115506 C430.618795,427.787602 430.950249,427.460433 431.280951,427.13455 L431.941185,426.484662 C438.310493,420.222142 444.257084,414.577587 445.673615,413.53344 C462.841662,401.219695 486.083312,407.133533 496.610888,426.495276 C498.311497,429.654724 500.740937,438.728009 500.740937,441.887457 C500.740937,446.181066 497.90659,455.092328 494.991261,460.277063 C493.416983,463.033073 486.600362,470.560919 479.131989,478.153492 L478.299721,478.997138 L478.299721,478.997138 L477.463488,479.839883 C477.044613,480.26079 476.624777,480.680821 476.204765,481.099169 L475.364742,481.93338 C470.18604,487.060892 465.060552,491.850477 461.464979,494.787953 C440.490808,511.881375 416.925233,526.139395 392.630826,536.26583 C384.289746,539.830335 383.803858,539.992358 374.410021,543.070794 C355.217439,549.470701 335.943876,553.359252 314.402835,555.303528 C303.551334,556.275665 277.07043,556.194654 265.895003,555.141505 C254.071724,554.088355 241.519614,551.901045 226.214138,548.33654 C223.182196,547.606357 219.05052,546.438063 214.80089,545.145541 L213.818559,544.845205 L213.818559,544.845205 L212.834722,544.541315 C205.456996,542.250958 198.178392,539.733121 196.089073,538.615163 C194.955334,537.967071 193.578651,537.481002 193.092763,537.481002 C191.636718,537.481002 183.288415,533.611181 174.146821,528.922157 L173.198559,528.434288 C172.247967,527.943748 171.291137,527.445566 170.33482,526.94312 L169.378923,526.439379 L169.378923,526.439379 L168.42487,525.933545 C168.107326,525.764668 167.790339,525.595568 167.474159,525.42637 L166.528292,524.918603 C162.442194,522.718086 158.534779,520.522059 155.355451,518.605328 C134.543242,506.12956 121.100337,495.598068 103.527382,477.937565 C86.1163905,460.601109 83.5249871,456.145477 83.0390989,442.778583 C82.7961548,434.515413 83.4440057,431.11293 86.1973718,426.495276 C86.6022786,425.847184 87.2501295,424.551001 87.6550363,423.659874 C88.6268125,421.472564 93.1617685,416.773899 97.0488736,413.857485 C106.847618,406.566452 120.69543,405.027234 131.46595,410.130957 L131.76762,410.278625 C131.817689,410.303472 131.867662,410.328443 131.917552,410.353551 L132.216,410.505915 C132.265609,410.531611 132.315161,410.557464 132.364669,410.583486 L132.661286,410.741734 C136.858734,413.014775 140.921612,416.666754 152.764047,428.439552 C165.397139,441.077342 178.192193,451.284789 190.177434,458.413799 C193.740614,460.520097 197.222812,462.545384 197.870663,462.950442 C198.681949,463.420308 202.127391,465.128914 205.678445,466.853081 L206.413823,467.209626 C209.354729,468.633484 212.248535,470.010224 213.662027,470.646532 C216.739319,472.023727 222.974883,474.37306 231.882833,477.532508 C235.446012,478.74768 240.142931,479.881841 244.596906,480.529933 C251.318358,481.421059 257.796867,476.317336 258.444718,469.593383 C259.254531,461.087178 255.772333,456.874581 245.568682,453.958167 C237.308584,451.608835 230.587131,449.097479 221.517219,444.965893 C218.763853,443.750721 216.334412,442.697572 216.091468,442.697572 C215.624634,442.697572 210.7443,439.843882 205.437496,436.557547 L204.785823,436.153141 L204.785823,436.153141 L204.131514,435.745398 L204.131514,435.745398 L203.476195,435.335305 L203.476195,435.335305 L202.494882,434.717923 C199.558516,432.864516 196.715011,431.014764 194.631409,429.573712 C185.959541,423.71617 182.443307,420.84458 174.024392,412.44967 L173.06827,411.49374 C172.579611,411.003978 172.074669,410.496196 171.551722,409.968934 C161.429052,399.761488 153.330917,389.311007 146.36652,377.483331 C132.680671,354.39506 125.554311,331.711846 123.286833,303.600863 C122.396038,292.988359 122.47702,289.423854 123.610759,277.272132 C125.068423,262.528043 125.959218,256.695216 127.902771,250.700367 C131.384969,239.601794 126.930994,231.257612 116.970287,230.60952 C110.977667,230.285474 107.495469,232.148738 104.58014,237.414484 C103.365419,239.601794 102.312662,242.11315 102.312662,242.923265 C102.312662,243.814391 101.745792,246.325747 101.178923,248.594068 C97.6157431,260.988825 95.8341533,282.861924 96.8059296,302.952771 C97.5347618,318.668998 99.8832211,332.116903 104.823084,348.724256 C107.571823,357.973453 108.441066,361.196387 108.694828,364.380753 L108.720555,364.734717 C108.774974,365.561682 108.79117,366.400961 108.79117,367.356897 C108.79117,380.237722 101.259904,392.389444 89.5176075,398.22227 C84.4236189,400.809411 83.8800916,400.968736 74.8961926,400.976323 L73.0495834,400.976322 C64.2804347,400.96891 63.4522311,400.818621 58.9876359,398.546316 C50.3226308,394.171696 44.4109917,387.204709 40.6048679,376.673217 C38.3687909,370.708126 37.6068376,368.372998 37.0381172,365.918647 L36.9561205,365.558187 C36.875206,365.196006 36.7970915,364.827354 36.7177628,364.440483 C36.312856,362.658231 35.6650052,360.308898 35.2600984,359.174737 C34.8551916,358.121588 33.8834153,354.476071 33.2355645,351.154601 C32.5067323,347.83313 31.3729933,342.32435 30.7251424,339.002879 C29.9963102,335.681408 29.4294407,331.873869 29.4294407,330.496674 C29.4294407,329.409552 29.0306855,326.384899 28.5198377,323.334509 L28.4000905,322.630987 C28.3393524,322.279867 28.2774156,321.930363 28.2147204,321.585411 C27.4211031,317.139501 27.0163582,304.835445 27.0004859,292.374226 L27.0004859,290.848101 C27.0163582,278.386882 27.4211031,266.082827 28.2147204,261.636917 C28.8625712,258.072412 29.4294407,253.940826 29.4294407,252.401608 C29.4294407,250.943401 29.9963102,247.135862 30.6441611,243.895403 C30.9893974,242.398822 31.4254853,240.41146 31.866355,238.381047 L32.1600319,237.025974 C32.550027,235.223808 32.9286878,233.466241 33.2355645,232.067727 C33.5851983,230.380631 33.8930458,228.944345 34.2201282,227.542563 L34.343805,227.01809 L34.343805,227.01809 L34.4700001,226.494316 C35.3851308,222.737058 36.549373,218.838424 39.1472035,210.599685 C48.9459477,179.248243 68.2195106,144.980387 90.4893837,119.056714 C97.4537804,110.955566 111.382574,96.94058 117.13225,92.2419142 C117.477074,91.9596807 117.824594,91.6747496 118.16994,91.3909497 L118.685719,90.9665769 C120.822927,89.2058805 122.780047,87.5641546 123.367815,86.9761681 C125.959218,84.5458237 137.620533,75.958607 144.827874,71.1789297 C152.845028,65.9131836 153.249935,65.6701491 158.351761,62.8347474 C160.180987,61.8435481 163.301431,60.1347385 165.485109,58.9240349 L165.883027,58.703162 C170.82289,55.9487717 179.487895,51.6551633 183.294019,49.9539222 C184.832664,49.3058304 186.857198,48.4147041 187.667012,47.9286353 C188.557807,47.5235779 190.177434,46.875486 191.311173,46.5514401 C192.444912,46.1463827 195.441222,45.0932335 197.870663,44.1210958 C205.320948,41.285694 213.095158,38.8553496 224.594511,35.695902 C230.507949,34.1332805 233.884932,33.3011226 237.319988,32.6697354 L237.98626,32.5498962 C238.988845,32.3734712 240.010434,32.2110882 241.114515,32.0497853 L241.863488,31.9422679 C241.990586,31.9243275 242.118876,31.906365 242.248446,31.8883624 C266.218928,28.6479033 284.682677,46.0653713 282.577162,69.9637575 Z M331.327939,53.3564044 C327.764759,54.0044962 323.877654,57.8120357 322.177046,62.3486785 C320.800363,65.8321721 320.800363,66.156218 322.177046,69.6397116 C324.201579,75.1484922 327.359852,77.659848 334.162286,79.2800776 C348.334024,82.6825597 361.372022,86.4090877 367.931512,89.0014551 C385.990355,96.1304652 395.87008,101.153177 411.175557,111.117589 C429.88225,123.269311 448.912869,140.848802 452.718993,149.436018 C459.035539,163.856062 456.039228,179.005208 444.78282,189.5367 C438.709218,195.126492 434.093281,197.232791 423.32276,199.258078 C419.678599,199.987181 409.55593,197.394814 404.21116,194.478401 C401.619757,193.101205 396.922838,189.374677 393.683584,186.21523 C375.705722,168.797762 355.298421,157.21312 329.870274,150.003099 C305.494886,143.117123 276.50356,143.117123 252.937985,150.003099 C227.023951,157.537166 208.560202,167.906636 189.610564,185.810172 C181.026541,193.91132 176.653547,196.422676 167.988542,198.366952 C162.076903,199.744147 160.70022,199.663135 153.330917,197.961894 C141.264694,195.126492 132.275764,186.296241 128.145715,173.577439 C124.177628,161.101671 128.46964,147.491743 139.645067,136.879239 C160.538257,117.031427 177.706305,105.527797 204.430153,93.2950634 C214.147916,88.8394321 230.425168,83.6546975 248.726955,79.2800776 C258.039811,77.0117562 261.926916,71.9890445 260.793177,63.5638507 C260.38827,60.1613686 258.687662,57.4879898 255.448408,54.9766339 C252.695041,52.951347 243.139241,52.951347 235.850919,54.9766339 C233.016572,55.7057372 228.886523,56.8398979 226.619045,57.4879898 C221.841144,58.8651849 206.454687,63.8878966 203.539358,65.0220573 C202.641814,65.4068618 200.627684,66.1978489 198.622013,66.9930671 L197.990237,67.2438604 C197.675801,67.3688586 197.364529,67.4929074 197.060849,67.6144246 C194.35262,68.6901508 189.000147,71.215854 183.739186,73.8327831 L182.689024,74.3569827 C177.626978,76.8926012 172.820872,79.42882 170.741908,80.7382842 C170.586987,80.8298624 170.43023,80.9226657 170.2727,81.0160017 L169.798859,81.2969152 C168.297772,82.1871492 166.823115,83.0629614 166.287934,83.3306515 C164.932922,83.9707563 160.743835,86.6234524 156.517789,89.4178802 L155.366416,90.1821053 C150.901637,93.1568249 146.681321,96.099658 146.042595,96.778557 C145.79965,97.0215915 143.289228,99.0468784 140.3739,101.234188 C137.458571,103.421498 133.490484,106.661957 131.46595,108.44421 C127.724612,111.771081 122.04332,117.40912 116.578362,123.094206 L115.644033,124.06883 C109.745138,130.23902 104.246497,136.312159 101.907755,139.390595 C99.2353703,142.874089 96.8869109,145.952525 96.6439669,146.195559 C95.996116,146.76264 88.3838685,157.537166 87.3311108,159.319419 C87.2671782,159.43454 87.1568102,159.62237 87.0073389,159.871747 L86.8451046,160.141226 C85.9714765,161.587067 84.1813623,164.478571 82.3912481,167.420567 C77.2084412,176.007783 68.1385293,194.397389 64.6563309,203.713709 C64.5792058,203.906594 64.5013462,204.102417 64.4232417,204.299641 L64.1886835,204.89397 C63.5247955,206.581075 62.8785973,208.258067 62.5508156,208.979455 C58.3397851,218.862856 53.1569782,240.492921 49.9987053,260.826802 C48.0551528,273.383581 48.0551528,309.838747 49.9987053,322.395526 C54.0477732,348.724256 59.7974495,370.27331 64.4133868,375.78209 C70.6489513,383.397169 82.8771362,380.723791 86.6022786,370.921402 C87.9789617,367.356897 87.9789617,366.951839 86.6022786,362.658231 C85.792465,360.065863 84.658726,356.825404 84.0108752,355.367198 C83.3630243,353.908991 82.8771362,352.126739 82.8771362,351.316624 C82.8771362,350.58752 82.3912481,348.319199 81.7433972,346.293912 C80.4476955,342.162327 78.747087,334.385225 76.6415717,322.395526 C74.6170378,310.729873 74.6170378,272.492455 76.6415717,260.826802 C81.014565,235.713243 82.8771362,229.718394 88.7077939,221.86028 C92.2709736,217.161615 96.8059296,213.59711 103.122475,210.923731 C106.928599,209.22249 108.79117,208.979455 116.484399,209.060467 C124.744498,209.060467 125.797255,209.303501 130.818099,211.733846 C142.965303,217.566672 150.901476,230.04244 150.901476,243.328322 C150.901476,246.325747 150.415588,250.376321 149.767737,252.401608 C146.771427,262.041974 144.422967,278.973373 144.422967,291.206106 C144.503949,311.215942 148.795961,332.116903 156.48919,350.101452 C168.393449,377.726366 190.744303,402.839924 217.711095,418.880197 C218.774549,419.545103 222.48075,421.422729 226.189697,423.239033 L226.956238,423.613527 C228.995834,424.607616 230.980844,425.556292 232.467894,426.245587 L233.00133,426.491496 C233.340238,426.646772 233.644559,426.784166 233.907367,426.900334 C239.252136,429.249666 244.434943,431.031919 254.557613,433.948332 C264.680282,436.864745 272.778418,443.66971 277.313374,452.98603 C279.823796,458.251776 279.985759,458.980879 279.985759,467.81113 C280.06674,477.208462 279.904777,477.775542 276.341598,484.013426 C275.936691,484.661518 275.28884,485.957702 274.883933,486.848828 C273.750194,489.522207 265.652059,496.651217 261.360047,498.838527 C255.124482,501.916963 247.431253,503.051124 240.466857,501.916963 C237.308584,501.349883 233.097553,500.377745 231.073019,499.729653 C220.324585,496.3419 217.741212,495.49831 216.021803,494.825141 L215.876371,494.767803 C215.828485,494.748793 215.781135,494.729866 215.734149,494.710968 L215.594114,494.654302 C215.570901,494.644854 215.547736,494.635399 215.524599,494.62593 C214.552822,494.220872 211.637494,493.086712 209.208053,492.114574 C204.349171,490.170299 187.505049,481.907128 181.674392,478.585657 C165.397139,469.269337 146.690445,454.201202 132.923615,439.376101 C128.793566,434.92047 124.177628,430.707873 122.638982,430.059781 C117.051269,427.710448 111.787481,428.92562 107.414487,433.786309 C104.742103,436.621711 104.256214,438.403964 104.661121,444.317801 C104.985047,448.206352 109.034114,453.310076 121.991132,465.947866 C161.348071,504.347307 213.257121,528.407717 267.919537,533.51144 C273.264306,533.997509 278.204169,534.483577 278.85202,534.6456 C279.345196,534.764687 280.970468,534.819467 283.298102,534.824195 L283.981882,534.824196 C287.3756,534.817738 292.030698,534.718417 296.815468,534.563775 L297.806899,534.531003 C305.416367,534.273887 313.155722,533.884093 316.508351,533.51144 C330.437144,531.810199 343.961031,529.298843 353.759775,526.625464 C356.470591,525.870272 360.460918,524.664176 364.399985,523.432441 L365.343696,523.13655 C370.364303,521.558162 375.1265,519.993507 376.839461,519.334431 C381.907388,517.341172 385.168147,516.020058 388.393883,514.590064 L389.23575,514.214039 C391.765959,513.075473 394.3691,511.828623 397.894614,510.099122 C416.358364,501.106848 433.202486,490.008276 450.532496,475.426209 C454.096528,472.428785 458.716988,468.055036 463.130817,463.616351 L463.844563,462.896202 C470.485558,456.173367 476.496824,449.464162 477.499288,447.315226 C481.548356,438.809021 475.150829,428.92562 465.433066,428.92562 C460.817128,428.92562 458.54965,430.54585 447.698149,441.563411 C437.818423,451.527823 430.044213,458.575822 422.593928,464.327637 C421.338094,465.269863 419.69102,466.454375 417.953659,467.674729 L417.371607,468.082558 C417.176751,468.218754 416.981192,468.35511 416.785345,468.491342 L416.197349,468.899383 C412.179093,471.681255 408.212885,474.292049 407.855321,474.292049 C407.531396,474.292049 406.721582,474.778118 406.073731,475.426209 C404.698024,476.618933 398.414522,480.14957 391.810967,483.59101 L390.966574,484.029671 C386.17584,486.510553 381.319779,488.890708 378.135163,490.25131 C365.502071,495.598068 350.925427,500.458756 342.908273,501.916963 C331.40892,503.94225 319.828586,499.972687 311.730451,491.223448 C306.709606,485.795679 304.604091,481.745105 302.74152,473.724968 C301.445818,468.297199 301.445818,467.568096 302.74152,461.573246 C305.899793,447.558261 314.888723,437.836883 328.250647,433.948332 C342.179441,429.897758 346.066546,428.439552 357.403936,422.84976 C378.297126,412.642313 399.109335,394.576753 412.55224,375.052987 C413.739966,373.297738 414.576774,372.064564 415.365592,370.828388 L415.589925,370.47466 C417.080259,368.109881 418.501156,365.552784 421.946077,359.174737 C425.67122,352.531796 431.339915,338.354787 432.716598,332.521961 C433.121504,330.982743 433.850337,328.066329 434.336225,326.041042 C434.822113,324.015755 435.550945,320.775296 436.036833,318.750009 C436.902982,315.139715 437.597574,307.038703 437.916733,298.713011 L437.960735,297.493508 C438.139593,292.206337 438.163474,286.912498 437.980386,282.699901 C437.575479,272.654478 436.360759,264.796364 433.931318,255.966113 C428.748511,236.685381 435.712908,219.591959 451.909179,211.733846 C457.078971,209.267335 457.874324,209.067002 466.263569,209.060634 L466.728767,209.060467 C475.555735,209.060467 476.284568,209.22249 481.548356,211.733846 C488.512752,215.136328 494.667336,221.212189 498.149534,228.260187 C499.526217,231.257612 500.740937,234.255037 500.740937,234.98414 C500.740937,235.713243 501.307807,237.981565 501.955658,240.087863 C505.6808,252.077562 508.029259,271.844363 508.029259,291.611164 C508.029259,308.38054 507.219446,317.534837 504.223136,332.927018 C503.76238,335.399265 503.187879,338.093667 502.555666,340.808435 L502.299835,341.89495 C500.532442,349.320355 498.389686,356.696903 497.015795,359.90384 C496.367944,361.362047 495.882056,364.521495 495.882056,366.951839 C495.882056,375.133999 500.659956,379.832664 508.920054,379.913676 C512.645197,379.913676 514.02188,379.508618 516.370339,377.645354 C519.528612,375.21501 520.905295,372.865677 523.253755,365.33161 C528.193617,349.696394 530.13717,340.461086 533.295443,318.344952 C534.672126,308.785597 534.672126,276.299994 533.295443,265.282433 C532.888696,261.964645 532.394306,258.501739 531.839713,255.023373 L531.641519,253.795284 C531.440915,252.566974 531.233214,251.33864 531.019622,250.11598 L530.804111,248.895422 C528.594027,236.509947 525.81663,224.907417 523.739643,220.078028 C523.091792,218.619821 522.605904,216.91858 522.605904,216.270488 C522.605904,215.622397 522.120016,213.921156 521.472165,212.462949 C520.824314,211.004742 519.771556,208.331363 519.123705,206.549111 C515.80347,197.799871 511.511458,188.159505 507.300427,179.977346 C503.420166,172.549392 501.891946,169.600484 500.184519,166.75379 L499.939108,166.347342 C498.826815,164.517203 497.590649,162.643171 495.558131,159.562453 C478.875971,134.286872 460.574184,114.844117 436.360759,96.6975456 C429.477343,91.5128109 425.914164,89.0824665 417.33014,83.7357089 C413.685979,81.548399 403.482328,75.8775955 400.324055,74.3383774 C390.849236,69.8017346 384.046802,66.7232984 380.807548,65.5891377 C362.748705,59.1082194 345.985564,54.2475306 338.616261,53.4374158 C336.024858,53.1133699 332.785603,53.1133699 331.327939,53.3564044 Z M308.005308,172.52429 C316.265407,173.658451 318.532885,174.144519 327.035927,176.736887 C352.949961,184.513989 377.163387,202.66056 391.821012,225.181751 C400.64798,238.629657 405.506862,250.214298 409.798874,267.712778 C411.904389,276.462017 411.904389,306.679299 409.798874,315.50955 C409.732032,315.779588 409.6647,316.049872 409.596949,316.320143 L409.392507,317.130666 C409.323986,317.400658 409.255115,317.670381 409.185965,317.93958 L408.977745,318.745344 C407.062646,326.112379 404.988838,332.888441 404.21116,333.737133 C403.887235,334.14219 403.563309,334.952305 403.563309,335.600397 C403.563309,336.267006 401.999741,339.740513 399.963125,343.828049 L399.619495,344.514615 C397.765441,348.202609 395.585489,352.279503 393.845546,355.205175 C386.31428,367.842965 371.413711,383.316158 358.294731,392.065398 C352.707017,395.710914 337.158597,403.812062 335.619951,403.812062 C335.134063,403.812062 333.595417,404.298131 332.137752,404.946223 C328.898498,406.323418 322.500971,408.186682 315.050686,409.887923 C308.653159,411.34613 285.41151,412.075233 276.422579,411.103095 C267.352667,410.130957 257.39196,407.781625 250.670508,404.946223 C249.212843,404.298131 247.674197,403.812062 247.188309,403.812062 C246.702421,403.812062 242.653353,402.02981 238.199379,399.761488 C221.5982,391.417306 207.021556,379.508618 196.008092,365.007564 C192.525893,360.551932 189.772527,356.744393 189.772527,356.501358 C189.772527,356.258324 188.881732,354.719106 187.747993,353.098876 C184.265795,347.995153 179.002007,336.167477 176.491585,328.066329 C167.097747,296.957921 169.608169,266.011536 183.698925,237.657519 C193.49767,217.890718 210.341792,199.825158 229.129467,188.645574 C240.06195,182.164656 248.807936,178.519139 263.060655,174.549577 C274.236082,171.471141 293.833571,170.580014 308.005308,172.52429 Z M258.201774,198.690997 C248.241067,202.498537 235.931901,209.384513 229.453392,214.650259 C222.16507,220.645108 211.151605,233.282899 206.211743,241.384047 C205.508043,242.523795 204.235836,245.009046 202.986102,247.588525 L202.674479,248.234634 L202.674479,248.234634 L202.365844,248.880324 C200.83356,252.100488 199.49029,255.142031 199.49029,255.561056 C199.49029,255.966113 199.004402,257.505331 198.356551,258.963538 C193.902576,269.738064 191.311173,289.099808 192.9308,300.522426 C194.71239,313.079206 195.360241,315.995619 197.384775,322.07148 C199.166365,327.58026 203.620339,337.463661 206.211743,341.838281 C217.144226,360.146875 235.526994,375.863102 254.152706,382.992112 C260.751187,385.434458 263.209732,386.317028 265.953034,387.08605 L266.329302,387.190349 C266.834453,387.328838 267.355666,387.465746 267.919537,387.609766 C273.426269,389.067973 288.974689,390.688202 293.428664,390.364157 C294.624979,390.268416 296.499932,390.116101 298.435294,389.957357 L299.330576,389.883817 C300.374823,389.797913 301.409009,389.712382 302.336613,389.635053 C308.572178,389.067973 317.885034,387.123697 321.610176,385.503468 C323.06784,384.855376 324.768449,384.369307 325.4163,384.369307 C326.145132,384.369307 327.278871,384.045261 328.088685,383.640204 C328.642597,383.270791 330.225556,382.527041 331.91329,381.729012 L332.716941,381.348199 C332.985012,381.220747 333.252056,381.093203 333.514436,380.966825 C356.270197,370.516344 375.624741,349.291337 384.53269,325.149916 C385.261523,323.205641 386.152317,320.289227 386.476243,318.750009 C386.88115,317.210791 387.529001,314.456401 388.014889,312.674148 C389.958441,305.788173 390.768255,292.097233 389.796479,282.780913 C388.824702,272.573466 385.585448,259.287584 382.589138,253.292734 C382.265212,252.563631 381.212455,250.457332 380.402641,248.67508 C365.016183,215.78442 329.141442,193.101205 292.213944,192.858171 C281.119498,192.77716 267.352667,195.126492 258.201774,198.690997 Z" id="Combined-Shape" stroke="url(#linearGradient-1)" stroke-width="3.6" stroke-linejoin="round" fill-rule="nonzero"></path>
            </g>
            <path d="M337.987607,272.844365 C337.255431,273.416526 324.328733,280.7529 324.328733,297.065842 C324.328733,315.934436 340.777451,322.609646 341.269777,322.774937 C341.194035,323.181807 338.656665,331.916797 332.597275,340.817077 C327.194319,348.649323 321.551512,356.468855 312.967377,356.468855 C304.383241,356.468855 302.174089,351.446554 292.264461,351.446554 C282.607309,351.446554 279.173654,356.634146 271.321695,356.634146 C263.469736,356.634146 257.991037,349.386775 251.691797,340.486495 C244.395281,330.035023 238.5,313.798369 238.5,298.388169 C238.5,273.67082 254.456393,260.561978 270.160312,260.561978 C278.504597,260.561978 285.460271,266.080152 290.699119,266.080152 C295.685492,266.080152 303.461709,260.231396 312.954753,260.231396 C316.552516,260.231396 329.479214,260.561978 337.987607,272.844365 Z M308.448082,249.76721 C312.374061,245.07549 315.151282,238.565571 315.151282,232.055652 C315.151282,231.152909 315.075539,230.237452 314.911431,229.5 C308.523824,229.741579 300.924339,233.784849 296.341926,239.137732 C292.744163,243.25729 289.386251,249.76721 289.386251,256.366132 C289.386251,257.357877 289.55036,258.349623 289.626102,258.66749 C290.030061,258.743778 290.686495,258.832781 291.342929,258.832781 C297.074102,258.832781 304.282251,254.967516 308.448082,249.76721 Z" id="Shape" stroke="url(#linearGradient-2)" stroke-width="4.5" stroke-linejoin="round" fill-rule="nonzero"></path>
        </g>
    </g>
</svg>